<svg xmlns="http://www.w3.org/2000/svg" viewBox="0 0 240 234">
  <path fill="#00005b" d="M42.5 0h155C221 0 240 19 240 42.5v149c0 23.5-19 42.5-42.5 42.5h-155C19 234 0 215 0 191.5v-149C0 19 19 0 42.5 0Z"/>
  <path fill="#99f" d="M96.4 140H59.2l-7.6 23.6c-.2.9-1 1.5-1.9 1.4H30.9c-1.1 0-1.4-.6-1.1-1.8L62 70.9l1-3.1c.4-2.1.6-4.3.6-6.5-.1-.5.3-1 .8-1.1h25.9c.7 0 1.2.3 1.3.8l36.5 102c.3 1.1 0 1.6-1 1.6h-20.9c-.7.1-1.4-.4-1.6-1.1l-8.2-24v.5ZM65 120.1h25.4a301.2 301.2 0 0 1-5-15.8l-2.9-9.2-2.7-8.9-2.2-7.8h-.2c-.9 4.3-2 8.6-3.4 12.9l-4.6 14.8c-1.3 5.1-2.9 9.8-4.4 14ZM187 131h-31.7a22 22 0 0 0 3.1 8.9c1.8 2.7 4.3 4.8 7.3 6 4 1.7 8.4 2.6 12.8 2.5a60.2 60.2 0 0 0 19.3-3.4c.5-.4.8-.2.8.8v15.3l-.2 1.2-.7.7a42.8 42.8 0 0 1-10 3c-4.7.9-9.4 1.3-14.2 1.2-7.6 0-14-1.2-19.2-3.5a33.7 33.7 0 0 1-12.6-9.5 36.7 36.7 0 0 1-6.9-13.1 51 51 0 0 1 .4-30.5c1.6-5 4.1-9.6 7.5-13.7 3.3-4 7.4-7.2 12.1-9.5s10.3-3.1 16.7-3.1c5.3-.1 10.6.9 15.5 3.1 4.1 1.8 7.7 4.5 10.5 8a39.3 39.3 0 0 1 7.9 23.6l-.2 6.4-.4 4.2c-.1.7-.7 1.3-1.4 1.3l-3.3.2c-1.6.2-3.5.3-5.8.3s-4.7-.4-7.3-.4Zm-31.7-14.6h21.1l5.7-.1c.8-.1 1.6-.3 2.3-.8v-1a13.2 13.2 0 0 0-13.6-12.9 14 14 0 0 0-13.3 7.6 20.7 20.7 0 0 0-2.2 7.2Z"/>
</svg>