<svg xmlns="http://www.w3.org/2000/svg" viewBox="0 0 100 81.23">
  <ellipse cx="65.63" cy="46.28" fill="#fff" rx="27.04" ry="24.53"/>
  <ellipse cx="65.63" cy="46.28" fill="#265787" rx="13.52" ry="12.26"/>
  <path fill="#ea7600" d="M87.76 25.23 56.44 1.18c-2.05-1.57-5.5-1.57-7.75 0-2.28 1.59-2.54 4.23-.51 5.89l13.02 10.6-39.77.04c-3.28 0-6.44 2.16-7.06 4.88-.64 2.77 1.59 5.07 5 5.09l20.12-.03L3.44 55.34c-3.39 2.59-4.48 6.91-2.35 9.64 2.17 2.78 6.77 2.78 10.19.02l19.6-16.04s-.26 2.02-.26 3.33c0 10.1 11.06 28.96 34.56 28.96 18.48 0 34.81-13.56 34.81-32.01 0-15.45-12.24-23.99-12.24-23.99Zm-22.58 40.9c-11.7 0-21.19-8.61-21.19-19.24s9.49-19.24 21.19-19.24 21.19 8.61 21.19 19.24-9.49 19.24-21.19 19.24Z"/>
</svg>