<svg xmlns="http://www.w3.org/2000/svg" viewBox="0 0 100 97.5">
  <path fill="#001e36" d="M17.71 0h64.58A17.7 17.7 0 0 1 100 17.71v62.08A17.7 17.7 0 0 1 82.29 97.5H17.71A17.7 17.7 0 0 1 0 79.79V17.71A17.7 17.7 0 0 1 17.71 0Z"/>
  <path fill="#31a8ff" d="M22.5 68.38V25.5c0-.29.12-.46.42-.46.71 0 1.37 0 2.33-.04 1-.04 2.04-.04 3.17-.08 1.12-.04 2.33-.04 3.62-.08s2.54-.04 3.79-.04c3.42 0 6.25.42 8.58 1.29 2.08.71 4 1.88 5.58 3.42a13.34 13.34 0 0 1 3.04 4.75c.62 1.75.96 3.54.96 5.42 0 3.58-.83 6.54-2.5 8.87s-4 4.08-6.71 5.08a27.05 27.05 0 0 1-9.38 1.42c-1 0-1.67 0-2.08-.04s-1-.04-1.79-.04v13.37a.52.52 0 0 1-.46.58h-8.08c-.33 0-.5-.17-.5-.54Zm9.08-35.3v14c.58.04 1.12.08 1.63.08h2.21c1.63 0 3.25-.25 4.79-.75a7.26 7.26 0 0 0 3.42-2.21c.87-1.04 1.29-2.46 1.29-4.29a6.87 6.87 0 0 0-.96-3.71 6.01 6.01 0 0 0-2.92-2.37 12.35 12.35 0 0 0-4.92-.83c-1.08 0-2.04 0-2.83.04-.83-.04-1.42 0-1.71.04ZM80 44.54a14.88 14.88 0 0 0-4-1.42 22.15 22.15 0 0 0-4.67-.54 8.4 8.4 0 0 0-2.5.29c-.54.13-1 .42-1.29.83-.21.33-.33.75-.33 1.12s.17.75.42 1.08c.37.46.88.83 1.42 1.12.96.5 1.96.96 2.96 1.38a30.2 30.2 0 0 1 6.42 3.04 9.57 9.57 0 0 1 3.29 3.46c.67 1.33 1 2.79.96 4.29a9.7 9.7 0 0 1-1.62 5.54 10.42 10.42 0 0 1-4.67 3.71 19 19 0 0 1-7.54 1.33c-1.92 0-3.79-.17-5.67-.54a16.94 16.94 0 0 1-4.25-1.33c-.29-.17-.5-.46-.46-.79v-7.25c0-.13.04-.29.17-.37.13-.08.25-.04.37.04 1.62.96 3.33 1.62 5.17 2.04 1.58.42 3.25.62 4.92.62s2.71-.21 3.46-.58c.67-.29 1.12-1 1.12-1.75 0-.58-.33-1.12-1-1.67-.67-.54-2.04-1.17-4.08-1.96a25.55 25.55 0 0 1-5.92-3 10.9 10.9 0 0 1-3.17-3.54 9.77 9.77 0 0 1 .46-9.29c1.04-1.67 2.58-3 4.38-3.83 1.96-1 4.42-1.46 7.37-1.46 1.71 0 3.46.13 5.17.38 1.25.17 2.46.5 3.58.96.17.04.33.21.42.38.04.17.08.33.08.5v6.79c0 .17-.08.33-.21.42-.37.08-.58.08-.75 0Z"/>
</svg>