<svg xmlns="http://www.w3.org/2000/svg" viewBox="0 0 98 98"><path fill="#24292f" fill-rule="evenodd" d="M48.9 0a49.3 49.3 0 0 0-15.5 96c2.4.4 3.3-1.2 3.3-2.5v-9c-13.7 2.8-16.5-6-16.5-6-2.2-5.7-5.4-7.1-5.4-7.1-4.5-3 .3-3 .3-3 5 .3 7.5 5 7.5 5 4.4 7.5 11.4 5.4 14.3 4A10.5 10.5 0 0 1 40 71c-10.8-1.2-22.3-5.4-22.3-24.3a19.2 19.2 0 0 1 5-13.2c-.4-1.2-2.1-6.3.5-13 0 0 4.2-1.3 13.5 5a47.5 47.5 0 0 1 12.2-1.6A47 47 0 0 1 61 25.5c9.3-6.4 13.4-5 13.4-5 2.7 6.7 1 11.7.5 13a19 19 0 0 1 5 13.1c0 19-11.4 23-22.3 24.3 1.8 1.5 3.3 4.5 3.3 9.1v13.5c0 1.3.8 2.9 3.2 2.4A49.3 49.3 0 0 0 48.8 0Z"/></svg>